<svg width="148" height="31" viewBox="0 0 148 31" fill="#FFF" xmlns="http://www.w3.org/2000/svg"><path d="M4.376 20.638c-.45-.05-1.348-.1-2.697-.1H.48V1.021c.6.05 1.3.05 2.048.05.75 0 1.299-.05 1.599-.1l4.895 8.336L13.767.97c.3.1.899.1 1.798.1.9 0 1.648 0 2.248-.05v19.517h-1.149c-1.349 0-2.248.05-2.697.1V7.51l-4.795 8.536-4.796-7.837v12.429zM32.647 19.64c-1.398.748-2.647 1.148-3.746 1.148-1.099 0-2.098-.1-2.897-.3-.8-.2-1.498-.5-2.048-.948-1.149-.849-1.698-2.047-1.698-3.594 0-1.398.7-2.596 2.098-3.495 1.498-.998 3.546-1.497 6.093-1.497h1c.15 0 .3 0 .399.05-.1-1.548-.75-2.496-1.998-2.746-.4-.1-.85-.15-1.349-.15-.45 0-.949.05-1.398.1-.45.05-.9.2-1.349.35-.949.3-1.648.649-2.048 1.048l-.05-.05-.45-3.244a12.628 12.628 0 015.745-1.348c3.197 0 5.195 1.148 6.094 3.444.3.749.4 1.548.4 2.496v5.291c0 1.148.399 1.897 1.198 2.296l-2.647 2.446c-.55-.35-1-.748-1.349-1.298zm-.799-6.04c-.25-.05-.55-.05-.8-.05h-.598c-2.148 0-3.547.499-4.096 1.447-.2.3-.25.6-.25.899 0 .3.05.599.15.848.1.25.3.45.55.6.499.299 1.248.448 2.247.448.999 0 1.948-.25 2.797-.698V13.6zM62.618 19.64c-1.399.748-2.647 1.148-3.746 1.148-1.1 0-2.098-.1-2.897-.3-.8-.2-1.499-.5-2.048-.948-1.149-.849-1.699-2.047-1.699-3.594 0-1.398.7-2.596 2.098-3.495 1.499-.998 3.547-1.497 6.094-1.497h1c.149 0 .299 0 .399.05-.1-1.548-.75-2.496-1.998-2.746-.4-.1-.85-.15-1.349-.15-.45 0-.949.05-1.398.1-.45.05-.9.2-1.35.35-.948.3-1.647.649-2.047 1.048l-.05-.05-.45-3.244c1.749-.899 3.597-1.348 5.645-1.348 3.197 0 5.194 1.148 6.094 3.444.3.749.4 1.548.4 2.496v5.291c0 1.148.399 1.897 1.198 2.296l-2.647 2.446c-.45-.35-.9-.748-1.25-1.298zm-.8-6.04c-.249-.05-.549-.05-.798-.05h-.6c-2.148 0-3.546.499-4.096 1.447-.2.3-.25.6-.25.899 0 .3.05.599.15.848.1.25.3.45.55.6.5.299 1.249.448 2.248.448.999 0 1.948-.25 2.797-.698V13.6zM48.931 15.097h-.1c-.45.649-1.348.999-2.597.999-.35 0-.7-.05-.949-.1-.85-.2-1.249-1.098-1.249-2.596v-1.448h4.046V8.608h-4.046V4.465H40.44v4.143h-2.198v3.344h2.198v2.896c.1 1.547.55 2.695 1.299 3.444.45.45.949.749 1.548.948.6.2 1.199.3 1.698.3.5 0 .95 0 1.299-.05 1.299-.15 2.198-.45 2.647-.949v-3.444zM44.535 26.678c-2.847 0-5.644-1.248-7.842-3.544l2.498-2.396c1.548 1.598 3.396 2.446 5.344 2.446 1.948 0 3.797-.848 5.345-2.446l2.497 2.396c-2.197 2.296-4.995 3.544-7.842 3.544zM75.604 20.538c-.85-.1-1.799-.1-2.947-.1h-1.15l6.344-17.82c.3-.799.4-1.248.4-1.398v-.3c.65.05 1.299.05 1.998.05.6 0 1.299 0 2.098-.05v.05c0 .05-.05.1-.05.15 0 .2.15.7.45 1.498l6.493 17.87h-.7l-.649-.05h-2.897l-1.398-4.193h-6.594l-1.398 4.293zm6.843-7.837l-2.198-6.788L78.1 12.7h4.346zM95.184 18.542c0 .848.05 1.497.1 1.896h-3.696V5.114h3.546v1.298c1.299-1.048 2.648-1.598 4.146-1.598 1.598 0 2.897.55 3.846 1.648.949 1.098 1.449 2.496 1.449 4.293v5.84c0 1.647 0 2.645.05 2.945.05.3.099.549.199.649.1.1.15.2.2.25l-.05.05c-.799-.05-1.348-.1-1.748-.1h-1.049c-.3 0-.749 0-1.249.05v-7.987c0-2.846-.849-4.293-2.597-4.293-1.299 0-2.348.649-3.247 1.997v8.386h.1zM112.866 16.345c-.35.5-.55.849-.55 1.148 0 .3.05.5.15.649.1.15.3.3.55.45.649.299 1.698.548 3.196.798 1.499.25 2.648.499 3.447.848.799.35 1.498.75 2.048 1.248.949.949 1.448 2.296 1.448 4.044 0 1.747-.599 3.044-1.848 3.993-1.199.948-3.047 1.398-5.444 1.398-2.398 0-4.396-.55-5.844-1.598-1.449-1.048-2.248-2.446-2.298-4.193-.05-2.046.749-3.494 2.398-4.392-.45-.35-.75-.8-.9-1.298a6.081 6.081 0 01-.249-1.697c0-1.099.449-1.997 1.398-2.746-1.099-1.048-1.648-2.346-1.648-3.893 0-1.747.599-3.195 1.898-4.343 1.299-1.248 3.047-1.847 5.145-1.847 1.099 0 2.148.2 3.097.599 1.248-.55 2.197-.998 2.797-1.398.599-.399.999-.699 1.149-.898h.099c.1.25.2.549.3.998l.25 1.048c.25.849.399 1.448.399 1.797-.449.45-1.198.8-2.247.999.399.798.649 1.647.649 2.595 0 .949-.15 1.748-.449 2.446-.3.7-.75 1.398-1.349 1.947-1.299 1.198-2.897 1.797-4.895 1.797-.949-.05-1.848-.2-2.697-.5zm3.196 11.43c2.398 0 3.597-.848 3.597-2.495 0-.799-.4-1.448-1.149-1.947-.899-.549-2.398-.998-4.545-1.298l-.75-.15c-.649.35-1.099.8-1.398 1.298-.3.55-.45 1.049-.45 1.548 0 .5.1.898.35 1.248.25.35.549.649.949.898.849.6 1.998.899 3.396.899zm-3.596-18.02c-.15.35-.2.7-.2 1.05 0 .349.1.698.25 1.047.15.35.35.65.649.899.65.599 1.499.898 2.548.898.799 0 1.498-.25 2.098-.798.599-.6.899-1.298.899-2.097 0-.798-.3-1.497-.849-1.996-.55-.5-1.299-.75-2.298-.75-1.548-.05-2.597.55-3.097 1.748zM129.699 18.791c0 .849 0 1.398.05 1.647h-3.696V9.207h3.646v9.584zM137.641 18.542c0 .848.05 1.497.1 1.896h-3.696V5.114h3.546v1.298c1.299-1.048 2.648-1.598 4.146-1.598 1.598 0 2.897.55 3.846 1.648.949 1.098 1.449 2.496 1.449 4.293v5.84c0 1.647 0 2.645.05 2.945.05.3.1.549.199.649.1.1.15.2.2.25l-.05.05c-.799-.05-1.348-.1-1.748-.1h-1.049c-.3 0-.749 0-1.249.05v-7.987c0-2.846-.849-4.293-2.597-4.293-1.299 0-2.348.649-3.247 1.997v8.386h.1zM127.851 6.96a2.496 2.496 0 10.001-4.992 2.496 2.496 0 00-.001 4.992z" fill="#FFF"></path></svg>