<svg width="165" height="77" viewBox="0 0 495 233" fill="none" xmlns="http://www.w3.org/2000/svg" style="display:none"><path d="M249.201 103.946l27.365-49.85a6.632 6.632 0 00-.546-4.562L256.454 11.28a6.643 6.643 0 00-5.473-3.6l-86.292-5.627a6.633 6.633 0 00-6.52 3.99L139.526 49.26a6.62 6.62 0 00-.5 3.384l10.162 40.208a6.618 6.618 0 005.708 4.963l87.773 9.521a6.63 6.63 0 006.532-3.39z" fill="#F4F4F4"></path><path d="M245.025 28.447l-68.254.973a2.837 2.837 0 00-2.799 2.879l.647 45.424a2.84 2.84 0 002.879 2.799l68.255-.973a2.828 2.828 0 001.996-.86 2.841 2.841 0 00.803-2.02l-.647-45.423a2.822 2.822 0 00-.86-1.996 2.813 2.813 0 00-.931-.602 2.827 2.827 0 00-1.089-.2z" fill="#61656D"></path><path opacity="0.2" d="M245.025 28.447l-68.254.973a2.837 2.837 0 00-2.799 2.879l.647 45.424a2.84 2.84 0 002.879 2.799l68.255-.973a2.828 2.828 0 001.996-.86 2.841 2.841 0 00.803-2.02l-.647-45.423a2.822 2.822 0 00-.86-1.996 2.813 2.813 0 00-.931-.602 2.827 2.827 0 00-1.089-.2z" fill="#000"></path><path d="M246.886 34.463l-73.933 1.053.594 41.679 73.932-1.053-.593-41.68z" fill="#61656D"></path><path d="M174.945 29.445l69.777-.994a2.078 2.078 0 012.107 2.048l.057 3.964-73.933 1.053-.056-3.963a2.077 2.077 0 012.048-2.108zM173.547 77.195l73.932-1.053.019 1.299a2.077 2.077 0 01-2.048 2.107l-69.777.994a2.076 2.076 0 01-2.108-2.048l-.018-1.299z" fill="#61656D"></path><path d="M242.654 33.255a1.54 1.54 0 10-.042-3.08 1.54 1.54 0 00.042 3.08z" fill="#DADDDF"></path><path d="M245.95 34.55l-72.057 1.027.591 41.531 72.057-1.026-.591-41.531z" fill="#4D61FC"></path><path opacity="0.7" d="M245.95 34.55l-72.057 1.027.591 41.531 72.057-1.026-.591-41.531z" fill="#fff"></path><path d="M229.865 68.288a5.487 5.487 0 00-3.106-3.758c-.693-.3-1.408-.55-2.138-.75l-.001-.028-2.145-.356.011-.089-3.89-.62.001.062-3.989-.66-10.164.075-3.768.856-3.513.7.02.083-1.707.354a7.631 7.631 0 00-4.774 4.287l-2.455 8.522 43.533-.62-1.915-8.058z" fill="#00B29D"></path><g opacity="0.2" fill="#4D61FC"><path opacity="0.2" d="M190.705 68.447l-.438 1.521.099 6.974 1.299-.019-.142-9.924a7.529 7.529 0 00-.818 1.448zM193.315 65.223l.166 11.675 1.299-.019-.177-12.389a7.568 7.568 0 00-1.288.733zM197.165 63.72l.019.083-.769.16.183 12.887.608-.008.125-.002.566-.008-.188-13.22-.544.108zM200.676 63.023l-1.155.23.193 13.555.649-.01.65-.009-.197-13.797-.14.03zM202.629 62.577l.202 14.186 1.06-.015.239-.003-.206-14.465-1.295.297zM205.742 62.15l.208 14.569 1.298-.019-.207-14.558-1.299.008zM208.857 62.13l.208 14.545 1.298-.019-.207-14.537-1.299.01zM211.975 62.106l.206 14.525 1.299-.019-.207-14.516-1.298.01zM215.096 62.166l.205 14.42 1.299-.018-.202-14.184-1.302-.218zM218.603 62.684l-.007.063-.377-.062.197 13.856 1.299-.018-.195-13.693-.917-.146zM222.481 63.393l.012-.088-1.151-.184.19 13.376 1.299-.018-.186-13.06-.164-.026zM225.949 76.435l-.175-12.29a15.462 15.462 0 00-1.151-.366l-.001-.029-.153-.023.181 12.726 1.299-.018zM229.065 76.39l-.145-10.13a5.346 5.346 0 00-1.316-1.264l.162 11.413 1.299-.019zM231.782 76.351l-.956-4.018.058 4.031.898-.013z"></path></g><path d="M214.346 62.367l.257-.23-1.047-10.404-8.713.225-.373 10.303c2.826 2.498 7.097 2.684 9.876.106z" fill="#FC9D9D"></path><path opacity="0.15" d="M214.004 56.229l.017-.063c-.656 2.049-1.955 3.712-4.099 4.005h.023a3.406 3.406 0 01-.459.032c-1.716.066-3.103-.78-4.109-2.492a.173.173 0 00-.095-.07.177.177 0 00-.116.002.157.157 0 00-.069.095.153.153 0 00.001.117c1.065 1.816 2.543 2.702 4.387 2.631a4.872 4.872 0 001.125-.177c1.299.2 2.624-.12 3.689-.892l-.295-3.188z" fill="#000"></path><path d="M213.983 46.272c.511 1.399.771 2.875.771 4.364-.001 3.52-.697 9.386-5.28 9.563-5.047.199-5.986-7.19-6.158-10.34a10.75 10.75 0 01.147-2.437c.149-.857.856-1.895 1.524-2.448a5.257 5.257 0 013.358-1.284l1.299-.019a7.68 7.68 0 012.709.673 3.64 3.64 0 011.641 1.928h-.011z" fill="#FC9D9D"></path><path d="M203.838 51.437a1.236 1.236 0 00-.155-.53.985.985 0 00-.359-.367.776.776 0 00-.897.096l-.018.021c-.951.926-.419 3.973 1.613 3.801l-.184-3.02zM215.702 50.249l-.016-.024a.691.691 0 00-.853-.032.954.954 0 00-.314.387c-.075.17-.112.354-.112.54l.042 2.9c1.948.001 2.202-2.938 1.253-3.771z" fill="#FC9D9D"></path><path d="M207.068 53.22a.592.592 0 00.315-.103.59.59 0 00.202-.263.57.57 0 00-.681-.748.569.569 0 00-.368.777.562.562 0 00.13.18c.108.103.251.16.402.157z" fill="#21252B"></path><path d="M206.786 52.72a.122.122 0 00.069-.02.135.135 0 00.046-.059.112.112 0 00-.001-.072.123.123 0 00-.037-.064.118.118 0 00-.065-.033.121.121 0 00-.073.001.111.111 0 00-.053.048.132.132 0 00-.02.07.162.162 0 00.001.049.113.113 0 00.026.038.146.146 0 00.042.028.154.154 0 00.049 0l.016.015z" fill="#fff"></path><path d="M211.447 53.041a.568.568 0 00.514-.363.56.56 0 00-.138-.61.586.586 0 00-.293-.15.592.592 0 00-.584.258.569.569 0 00.088.71.572.572 0 00.405.155h.008z" fill="#21252B"></path><path d="M211.161 52.545a.17.17 0 00.049 0 .113.113 0 00.039-.03.078.078 0 00.025-.04.162.162 0 00-.001-.048.121.121 0 000-.047.13.13 0 00-.068-.066.116.116 0 00-.05 0 .092.092 0 00-.046.001.135.135 0 00-.069.071.145.145 0 00.001.047.082.082 0 000 .049.09.09 0 00.029.038c.011.012.027.021.042.025a.104.104 0 00.049 0z" fill="#fff"></path><path opacity="0.3" d="M209.431 55.422l.462-.006a.175.175 0 00.106-.059.177.177 0 00.04-.115.165.165 0 00-.156-.161l-.459.006a.338.338 0 01-.317-.198.34.34 0 01-.028-.13.345.345 0 01.09-.247.326.326 0 01.237-.115.187.187 0 00.068-.002.115.115 0 00.059-.034.16.16 0 00.041-.058.184.184 0 00-.001-.07.175.175 0 00-.059-.124.184.184 0 00-.061-.033.226.226 0 00-.07.001.677.677 0 00-.652.688.656.656 0 00.422.625c.088.03.185.041.278.032z" fill="#000"></path><path d="M213.069 51.007l-7.77.201a.84.84 0 00-.314.07.815.815 0 00-.479.77l.008.629a2.223 2.223 0 003.832 1.472 2.22 2.22 0 00.609-1.587l-.009-.629a.854.854 0 00-.181-.499l.86-.012a.836.836 0 00-.154.488l.009.626a2.216 2.216 0 001.836 2.195 2.23 2.23 0 002.474-1.435c.1-.28.145-.578.128-.875l-.009-.626a.812.812 0 00-.837-.767l-.003-.021zm-4.46.934l.009.63c.007.312-.064.62-.206.898a1.89 1.89 0 01-2.38.906 1.892 1.892 0 01-1.206-1.729l-.009-.626a.489.489 0 01.143-.35.475.475 0 01.349-.145l2.804-.074a.49.49 0 01.193.032c.06.024.115.06.16.106a.477.477 0 01.143.352zm4.979.5a1.894 1.894 0 11-3.792.077l-.009-.628a.506.506 0 01.143-.35.498.498 0 01.349-.145l2.805-.074a.471.471 0 01.35.143.471.471 0 01.145.349l.009.628z" fill="#21252B"></path><path d="M208.013 56.534l2.783-.115c.019 0 .034.004.05.012.016.009.029.02.039.034.011.013.019.03.022.046a.18.18 0 01.001.052 1.58 1.58 0 01-2.973.141v-.02a.076.076 0 01-.001-.05.147.147 0 01-.001-.047.119.119 0 01.034-.037.143.143 0 01.049-.016h-.003z" fill="#fff"></path><path opacity="0.3" d="M203.289 52.982a.111.111 0 01-.052-.008.101.101 0 01-.042-.03.19.19 0 01-.049-.103l-.026-.358a1.217 1.217 0 00-.247-.776.332.332 0 00-.227-.098.103.103 0 01-.052-.008.098.098 0 01-.045-.03.182.182 0 01-.048-.106.268.268 0 01.034-.117.161.161 0 01.083-.069.562.562 0 01.423.158c.232.28.352.635.339.998l.025.353a.2.2 0 01.012.064.187.187 0 01-.02.062.167.167 0 01-.046.047.146.146 0 01-.062.02zM215.052 52.51a.137.137 0 00.049-.012.152.152 0 00.041-.03.195.195 0 00.04-.107l-.005-.359a1.223 1.223 0 01.163-.781.233.233 0 01.087-.085.198.198 0 01.109-.025.121.121 0 00.049-.01.12.12 0 00.038-.03.189.189 0 00.041-.11.2.2 0 00-.033-.113.169.169 0 00-.037-.037.12.12 0 00-.05-.017.498.498 0 00-.392.195 1.555 1.555 0 00-.245 1.043l.005.366a.227.227 0 00.15.12l-.01-.007z" fill="#000"></path><path d="M180.28 75.064a2.757 2.757 0 002.719-2.797 2.757 2.757 0 10-5.516.078 2.759 2.759 0 002.797 2.72z" fill="#4D61FC"></path><path opacity="0.3" d="M180.28 75.064a2.757 2.757 0 002.719-2.797 2.757 2.757 0 10-5.516.078 2.759 2.759 0 002.797 2.72z" fill="#fff"></path><path d="M180.464 71.257l-1.587.022a.221.221 0 00-.218.224l.024 1.652c.002.122.102.22.224.218l1.587-.023a.22.22 0 00.217-.224l-.023-1.652a.22.22 0 00-.224-.218zM182.08 73.235l-.829-.22a.288.288 0 01-.152-.099.292.292 0 01-.06-.17l-.013-.907a.277.277 0 01.207-.263l.823-.237.024 1.896z" fill="#fff"></path><path d="M187.626 74.959a2.76 2.76 0 10-.08-5.518 2.76 2.76 0 00.08 5.518z" fill="#4D61FC"></path><path opacity="0.3" d="M187.626 74.959a2.76 2.76 0 10-.08-5.518 2.76 2.76 0 00.08 5.518z" fill="#fff"></path><path d="M186.304 71.894l.823 1.54c.045.08.144.11.227.068l.458-.247a.165.165 0 00.07-.225l-.825-1.539a.164.164 0 00-.224-.068l-.459.246a.167.167 0 00-.07.225z" fill="#fff"></path><path d="M187.095 73.395l1.228-.656a.261.261 0 01.334.099l.213.4a.246.246 0 01.013.197.251.251 0 01-.128.15l-.611.315c-.314.16-.739.078-1.049-.505zM186.346 71.988l1.229-.656a.236.236 0 00.118-.145.193.193 0 00.009-.096.224.224 0 00-.027-.09l-.214-.4a.228.228 0 00-.061-.075.254.254 0 00-.086-.045.245.245 0 00-.187.02l-.598.334c-.327.186-.493.57-.183 1.153z" fill="#fff"></path><path d="M37.548 158.702L1.182 119.738a6.285 6.285 0 01-.59-4.265L9.076 76.25a6.095 6.095 0 014.055-4.525l76.08-24.947a6.165 6.165 0 016.793 2.122l26.944 34.94a6.31 6.31 0 011.25 2.95l.41 38.845a6.124 6.124 0 01-3.945 5.818L44.2 160.286a6.137 6.137 0 01-6.652-1.584z" fill="#F4F4F4"></path><path d="M102.738 82.603H34.476a2.84 2.84 0 00-2.84 2.84v45.429a2.836 2.836 0 001.753 2.623c.345.142.714.216 1.087.216h68.262a2.839 2.839 0 002.839-2.839v-45.43a2.842 2.842 0 00-2.839-2.838z" fill="#3B72FF"></path><path d="M104.512 88.647h-73.94v41.683h73.94V88.646zM32.65 82.603h69.784a2.08 2.08 0 012.078 2.079v3.963h-73.94v-3.963a2.078 2.078 0 012.078-2.079zM30.572 130.33h73.94v1.299a2.078 2.078 0 01-2.078 2.078H32.65a2.077 2.077 0 01-2.078-2.078v-1.299z" fill="#3B72FF"></path><path d="M100.298 87.379a1.54 1.54 0 100-3.082 1.54 1.54 0 000 3.082z" fill="#DADDDF"></path><path d="M103.572 88.719H31.508v41.535h72.064V88.719z" fill="#fff"></path><path d="M103.572 88.719H31.508v41.535h72.064V88.719z" fill="#4D61FC"></path><path opacity="0.7" d="M103.572 88.719H31.508v41.535h72.064V88.719z" fill="#fff"></path><path d="M83.72 130.329a6.011 6.011 0 00-.442-1.558c-.488-1.159-1.299-2.185-1.595-3.403-.325-1.377.042-2.904-.597-4.156-.5-.987-1.52-1.595-2.198-2.465-.823-1.039-1.088-2.367-1.15-3.72.097-.327.156-.665.176-1.005.052-1.258-.629-2.427-1.426-3.398-.797-.972-1.735-1.839-2.374-2.925-1.04-1.771-1.143-3.912-1.543-5.93-.32-1.673-.746-4.118-2.06-5.149a8.723 8.723 0 00-3.14-2.06c-1.647-.73-3.707-.425-5.406.182-.792.3-1.538.746-2.338 1.04-1.546.519-3.291.444-4.634 1.558-1.343 1.114-1.616 3.021-1.642 4.761 0 .52 0 1.039-.018 1.559-.171.283-.353.558-.55.826-.11.163-.24.312-.359.467-.12.156-.242.31-.371.455l-.39.444c-.134.152-.26.31-.377.476a6.695 6.695 0 00-.948 2.208c-.08.314-.145.628-.203.945-1.038 1.299-1.958 2.629-2.078 4.229-.093 1.322.406 2.618.556 3.935-.026.052-.049.107-.075.159l.078-.122c.033.28.045.564.034.846-.148 3.897-4.811 6.284-5.624 10.1a5.49 5.49 0 00-.094 1.704l11.69.018a9.998 9.998 0 00.425-2.478c1.128 1.075 2.546 1.818 4.014 2.465l7.502.039c.594-.548 1.148-1.161 1.742-1.642a9.903 9.903 0 012.582-1.431c.167 1.071.465 2.118.886 3.117l11.947-.091zm-32.234-23.885c.111-.157.231-.308.359-.452l.392-.449c.135-.148.26-.304.38-.462.119-.159.259-.307.363-.473.104-.167.228-.32.338-.483v.083c-.303.735-.65 1.45-1.04 2.143a19.05 19.05 0 01-1.818 2.699c.034-.159.068-.317.11-.476.175-.759.485-1.48.916-2.13z" fill="#614C05"></path><path d="M78.12 130.456a6.708 6.708 0 00-.195-1.067l-1.083-3.377.218-1.486a6.493 6.493 0 00-.054-2.818 5.286 5.286 0 00-3.637-3.884l-4.18-1.124-11.37-.128-6.979 1.421c-2.483.574-4.18 3.013-4.052 5.621l4.499 4.99s.143.855.345 1.876l26.488-.024z" fill="#3F4249"></path><path d="M66.194 106.153l.995 9.092a1.416 1.416 0 001.02 1.19l.974.275.06 1.392a1.17 1.17 0 01-.52 1.039c-1.337.865-3.6 2.455-3.6 2.455s-4.444-1.725-6.203-2.626a1.142 1.142 0 01-.581-.702l-.491-1.636s1.356-.847 1.379-1.462l.21-7.637 6.757-1.38z" fill="#F0A066"></path><path d="M69.271 108.259l-.26-6.131a2.034 2.034 0 00-2.122-1.95l-6.171.275a1.565 1.565 0 00-1.096.501 1.559 1.559 0 00-.411 1.133l.275 6.598a4.694 4.694 0 001.518 3.263 4.685 4.685 0 003.381 1.233l.361-.021a4.74 4.74 0 004.525-4.901z" fill="#F0A066"></path><path d="M64.242 106.455a.51.51 0 100-1.018.51.51 0 000 1.018z" fill="#000"></path><path d="M64.454 105.946a.107.107 0 100-.212.107.107 0 000 .212z" fill="#fff"></path><path d="M68.208 106.455a.51.51 0 100-1.019.51.51 0 000 1.019z" fill="#000"></path><path d="M68.42 105.926a.107.107 0 00.107-.107.106.106 0 00-.106-.106.107.107 0 000 .213z" fill="#fff"></path><path d="M60.766 98.822c.216 1.257.21 2.647-.55 3.665a6.752 6.752 0 00-.985 1.382c-.431 1.06.14 2.26.067 3.408a3.095 3.095 0 01-1.111 2.146 1.555 1.555 0 01-1.704.288 1.919 1.919 0 01-.686-1.241 27.44 27.44 0 01-.78-5.38 3.011 3.011 0 011.7-3.32 19.852 19.852 0 011.94-1.106 2.569 2.569 0 011.299-.361.946.946 0 01.909.844" fill="#614C05"></path><path opacity="0.15" d="M59.344 110.486l.763-1.527h-.722l-.041 1.527zM66.87 108.232a.619.619 0 00-.656-.551.185.185 0 00-.127.169.18.18 0 00.168.127.344.344 0 01.34.299.31.31 0 01-.275.338l-.68.065a.149.149 0 00-.14.11.145.145 0 00.018.121.143.143 0 00.044.045.148.148 0 00.122.02l.678-.062a.545.545 0 00.509-.681z" fill="#000"></path><path d="M60.086 108.939l-.52-2.418c-.57-2.208-3.285-1.572-2.628.615.657 2.188 2.883 1.803 2.883 1.803h.265z" fill="#F0A066"></path><path opacity="0.15" d="M57.476 106.093a.167.167 0 00.102.052.167.167 0 00.111-.028.498.498 0 01.2-.143c.076-.03.16-.04.241-.03a.495.495 0 01.386.277c.14.209.23.45.26.701l.04.26c.024.213.32.127.3-.042l-.021-.234a1.682 1.682 0 00-.32-.849.825.825 0 00-.571-.382.888.888 0 00-.66.234.17.17 0 00-.068.184z" fill="#000"></path><path d="M68.521 108.684a2.172 2.172 0 01-1.942-1.189 2.146 2.146 0 01-.224-.822 2.197 2.197 0 01.158-1.008 1.651 1.651 0 00-.686.021c.064.167.106.342.125.52a.092.092 0 010 .046 2.18 2.18 0 01-2 2.325 1.874 1.874 0 01-.436-.013 2.161 2.161 0 01-1.805-1.506 2.074 2.074 0 01-.097-.478 2.174 2.174 0 01.78-1.819 2.12 2.12 0 011.22-.519 2.2 2.2 0 01.668.052c.53.125.994.446 1.299.899a2 2 0 011.174-.016c.235-.309.548-.551.906-.701.21-.088.431-.145.657-.169.28-.016.562.02.83.106.481.151.896.464 1.173.886.21.308.335.667.359 1.039a2.197 2.197 0 01-2 2.338l-.159.008zm-2.296-3.284c.167 0 .333.023.493.07l.143.042-.07.13a1.936 1.936 0 001.876 2.795 1.954 1.954 0 001.78-2.078 1.838 1.838 0 00-.318-.915 1.973 1.973 0 00-1.039-.779 2.08 2.08 0 00-.735-.096c-.2.023-.396.074-.582.151-.344.145-.64.385-.855.691l-.049.075-.088-.031a1.754 1.754 0 00-1.187.018l-.096.039-.052-.088a1.939 1.939 0 00-1.208-.873 1.659 1.659 0 00-.198-.034 1.93 1.93 0 00-.395-.013c-.4.032-.78.192-1.083.455a1.933 1.933 0 00-.688 1.626c.01.144.04.286.086.423a1.929 1.929 0 001.608 1.341c.127.015.256.015.384 0a1.943 1.943 0 001.319-.671 1.937 1.937 0 00.458-1.407v-.032a2.2 2.2 0 00-.156-.589l-.047-.117.12-.042c.187-.059.382-.09.579-.091z" fill="#fff"></path><path opacity="0.15" d="M67.276 114.009a4.456 4.456 0 01-1.06.128 4.189 4.189 0 01-2.483-.85 5.386 5.386 0 01-2.164-.699.138.138 0 01-.041-.192.13.13 0 01.036-.039.14.14 0 01.103-.023.153.153 0 01.05.021 4.955 4.955 0 001.655.592c.044 0 .086.023.127.023.128.021.234.021.34.042h.042c.07.017.141.024.213.021h.574a5.231 5.231 0 002.418-.658l.19 1.634z" fill="#000"></path><path d="M64.273 109.725c-.086 0-.107.065-.086.127a1.457 1.457 0 001.316.827 1.454 1.454 0 001.316-.827.094.094 0 00.004-.044.095.095 0 00-.09-.083h-2.46z" fill="#fff"></path><path d="M71.03 106.454a3.041 3.041 0 00-2.275-3.277c-1.416-.315-3.006.42-4.289-.26-1.039-.52-1.483-1.819-2.512-2.312-.854-.418-1.862-.2-2.815-.174-.954.026-2.06-.32-2.338-1.242 2.06-1.369 4.33-2.522 6.785-2.722 2.454-.2 5.112.699 6.494 2.733 1.382 2.034 1.298 4.571 1.184 6.969" fill="#614C05"></path><path d="M55.559 130.501l-.52-13.248-4.906.922a5.27 5.27 0 00-3.572 5.455l.569 6.681 8.429.19z" fill="#3F4249"></path><path d="M72.983 120.007a.951.951 0 01-.935-1.14.952.952 0 011.888.189.95.95 0 01-.953.951zm0-1.784a.83.83 0 00-.818.996.835.835 0 001.652-.163.832.832 0 00-.834-.833z" fill="#fff"></path><path d="M72.984 119.662a.061.061 0 01-.043-.018.059.059 0 010-.084.057.057 0 01.043-.018.49.49 0 10-.491-.491.058.058 0 01-.018.042.058.058 0 01-.042.018.057.057 0 01-.043-.018.058.058 0 01-.017-.042.612.612 0 11.61.611zM66.663 123.882a.953.953 0 11-.007-1.906.953.953 0 01.007 1.906zm0-1.784a.831.831 0 00-.82.995.834.834 0 10.82-.995z" fill="#fff"></path><path d="M66.662 123.543a.06.06 0 01-.023-.005.055.055 0 01-.02-.013.061.061 0 01-.017-.042.069.069 0 01.017-.043.107.107 0 01.02-.013.088.088 0 01.023-.004.49.49 0 10-.491-.491.063.063 0 01-.022.036.062.062 0 01-.1-.036.613.613 0 11.613.611zM57.342 121.513a.951.951 0 01-.935-1.139.951.951 0 011.3-.695.95.95 0 01.588.881.955.955 0 01-.953.953zm0-1.785a.841.841 0 00-.773.514.833.833 0 001.09 1.09.827.827 0 00.514-.772.831.831 0 00-.83-.832z" fill="#fff"></path><path d="M57.337 121.173a.064.064 0 01-.036-.022.062.062 0 010-.078.059.059 0 01.036-.022.49.49 0 10-.491-.491.058.058 0 01-.017.042.061.061 0 01-.043.018.06.06 0 01-.06-.06.612.612 0 01.732-.596.607.607 0 01.478.48.61.61 0 01-.599.729zM49.442 121.625a.95.95 0 01-.935-1.139.951.951 0 011.3-.695.956.956 0 01.588.881.954.954 0 01-.953.953zm0-1.787a.832.832 0 00-.77.515.834.834 0 10.77-.515z" fill="#fff"></path><path d="M49.44 121.281a.062.062 0 01-.042-.018.058.058 0 01-.017-.042c0-.016.006-.031.017-.042a.062.062 0 01.042-.018.49.49 0 10-.187-.944.491.491 0 00-.303.453.063.063 0 01-.018.043.06.06 0 01-.042.017.06.06 0 01-.043-.017.063.063 0 01-.017-.043.612.612 0 011.214-.121.611.611 0 01-.603.732zM60.078 129.667a.959.959 0 01-.88-.588.954.954 0 111.834-.365.954.954 0 01-.954.953zm0-1.784a.832.832 0 10.005 1.664.832.832 0 00-.005-1.664z" fill="#fff"></path><path d="M60.077 129.324a.06.06 0 01-.042-.017.058.058 0 01-.017-.042c0-.016.006-.031.017-.043a.06.06 0 01.042-.017.49.49 0 10-.49-.491.058.058 0 01-.018.042.057.057 0 01-.043.018.056.056 0 01-.042-.018.058.058 0 01-.017-.042.608.608 0 01.73-.599.616.616 0 01.479.48.612.612 0 01-.599.729zM71.592 130.401a.952.952 0 10-1.766-.016h.13a.803.803 0 01-.079-.343.832.832 0 01.833-.787.83.83 0 01.832.787.811.811 0 01-.083.356l.133.003z" fill="#fff"></path><path d="M71.05 130.396h.158a.612.612 0 00-.928-.788.611.611 0 00-.178.432c0 .016.006.031.017.042a.061.061 0 00.042.018.06.06 0 00.06-.06.493.493 0 01.446-.492.496.496 0 01.429.183.494.494 0 01-.046.662v.003zM49.864 129.996a.95.95 0 01-.938-1.137.958.958 0 01.748-.751.954.954 0 11.19 1.888zm0-1.784a.834.834 0 00-.815.993.83.83 0 10.815-.993z" fill="#fff"></path><path d="M49.865 129.656a.057.057 0 01-.042-.018.058.058 0 01-.018-.042c0-.016.007-.031.018-.042a.06.06 0 01.042-.018.49.49 0 10-.491-.491.063.063 0 01-.022.036.062.062 0 01-.1-.036.612.612 0 11.613.611zM75.445 127.577a.952.952 0 01-.934-1.14.95.95 0 01.748-.749.96.96 0 01.551.054.96.96 0 01.589.881.952.952 0 01-.954.954zm0-1.785a.834.834 0 10-.003 1.667.834.834 0 00.003-1.667z" fill="#fff"></path><path d="M75.444 127.235a.058.058 0 01-.035-.021.062.062 0 010-.079.064.064 0 01.035-.022.49.49 0 00.096-.972.492.492 0 00-.587.481.061.061 0 01-.017.043.06.06 0 01-.042.017.06.06 0 01-.042-.017.061.061 0 01-.018-.043.612.612 0 011.043-.428.617.617 0 01.131.665.608.608 0 01-.564.376z" fill="#fff"></path><path d="M37.354 128.347a2.758 2.758 0 10.001-5.517 2.758 2.758 0 000 5.517z" fill="#4D61FC"></path><path opacity="0.3" d="M37.354 128.347a2.758 2.758 0 10.001-5.517 2.758 2.758 0 000 5.517z" fill="#fff"></path><path d="M37.59 124.542h-1.588a.22.22 0 00-.22.221v1.652a.22.22 0 00.22.221h1.587c.122 0 .221-.099.221-.221v-1.652a.221.221 0 00-.22-.221zM39.18 126.542l-.826-.229a.29.29 0 01-.15-.102.29.29 0 01-.057-.173v-.904a.288.288 0 01.21-.273l.828-.223-.005 1.904z" fill="#fff"></path><path d="M44.702 128.347a2.758 2.758 0 100-5.517 2.758 2.758 0 000 5.517z" fill="#4D61FC"></path><path opacity="0.3" d="M44.702 128.347a2.758 2.758 0 100-5.517 2.758 2.758 0 000 5.517z" fill="#fff"></path><path d="M43.419 125.264l.8 1.551a.166.166 0 00.225.072l.464-.24a.166.166 0 00.071-.224l-.8-1.551a.167.167 0 00-.225-.071l-.464.239a.167.167 0 00-.071.224z" fill="#fff"></path><path d="M44.193 126.774l1.24-.641a.258.258 0 01.33.106l.207.403a.259.259 0 01-.109.332l-.616.304c-.327.177-.748.083-1.052-.504zM43.461 125.356l1.239-.641a.26.26 0 00.106-.33l-.207-.403a.258.258 0 00-.335-.104l-.603.325c-.33.172-.501.564-.2 1.153z" fill="#fff"></path><path d="M94.465 98.882H83.524a.545.545 0 00-.546.545v6.442c0 .302.245.546.546.546h10.941a.545.545 0 00.545-.546v-6.442a.545.545 0 00-.545-.545z" fill="#CA0E68"></path><path opacity="0.3" d="M94.612 98.88H83.67a.545.545 0 00-.546.546v6.442c0 .302.244.546.546.546h10.94a.545.545 0 00.546-.546v-6.442a.545.545 0 00-.545-.545z" fill="#fff"></path><path d="M83.758 105.894l5.195-3.896 5.455 3.896" stroke="#CA0E68" stroke-miterlimit="10" stroke-linecap="round"></path><path d="M83.155 99.058l5.798 5.798 5.798-5.798a.105.105 0 00.028-.056.105.105 0 00-.05-.107.103.103 0 00-.061-.014h-11.43a.102.102 0 00-.06.014.1.1 0 00-.043.046.103.103 0 00.02.117z" fill="#CA0E68"></path><path d="M21.05 109.03h14.495c.803 0 1.454-.651 1.454-1.454V100.9c0-.803-.65-1.455-1.454-1.455H21.05c-.803 0-1.454.652-1.454 1.455v6.676c0 .803.65 1.454 1.454 1.454z" fill="#fff"></path><g opacity="0.3" fill="#000"><path opacity="0.3" d="M32.798 105.503a1.265 1.265 0 100-2.53 1.265 1.265 0 000 2.53zM28.298 105.503a1.265 1.265 0 100-2.53 1.265 1.265 0 000 2.53zM23.8 105.502a1.265 1.265 0 100-2.531 1.265 1.265 0 000 2.531z"></path></g><path d="M34.51 109.03l-.03 3.026-3.783-3.785 3.814.759z" fill="#fff"></path><path d="M308.556 212.648l20.915-46.92a5.989 5.989 0 00-.831-4.065l-20.466-32.989a5.991 5.991 0 00-5.195-2.831l-78.107 1.384a5.993 5.993 0 00-5.572 4.078l-13.551 40.317a5.954 5.954 0 00-.198 3.076l12.152 35.449a5.99 5.99 0 005.512 4.042l79.722 2.01a5.977 5.977 0 005.619-3.551z" fill="#F4F4F4"></path><path d="M301.541 145.468h-67.278a2.78 2.78 0 00-1.979.831 2.865 2.865 0 00-.819 2.008v45.429c0 .753.295 1.475.819 2.008a2.78 2.78 0 001.979.831h67.278a2.78 2.78 0 001.979-.831 2.865 2.865 0 00.819-2.008v-45.429c0-.753-.295-1.475-.819-2.008a2.78 2.78 0 00-1.979-.831z" fill="#3B72FF"></path><path d="M304.34 151.507H230.4v41.683h73.94v-41.683z" fill="#4D61FC"></path><path d="M232.478 145.468h69.784c.552 0 1.08.219 1.47.608.389.39.608.919.608 1.47v3.964H230.4v-3.964a2.08 2.08 0 012.078-2.078zM230.4 193.192h73.94v1.299a2.077 2.077 0 01-2.078 2.078h-69.784a2.076 2.076 0 01-2.078-2.078v-1.299z" fill="#4D61FC"></path><path d="M300.126 150.241a1.54 1.54 0 100-3.082 1.54 1.54 0 000 3.082z" fill="#DADDDF"></path><path d="M302.883 151.581h-72.065v41.535h72.065v-41.535z" fill="#4D61FC"></path><path opacity="0.7" d="M302.883 151.581h-72.065v41.535h72.065v-41.535z" fill="#fff"></path><path d="M273.438 176.809a.126.126 0 00.092-.038.125.125 0 00.038-.091v-4.676a.13.13 0 00-.221-.092.126.126 0 00-.038.092v4.676c0 .034.013.067.038.091a.125.125 0 00.091.038z" fill="#4D61FC"></path><path d="M259.61 190.389l1.652 2.785h15.869a14.007 14.007 0 01-.371-4.156c.066-1.301.298-2.59.691-3.834.044-.13.07-.2.07-.2l-6.835-.901-9.003-.691-10.13.402.031.086c1.548-.27 4.429.353 8.026 6.509z" fill="#00B29D"></path><path d="M278.467 192.915c.044.088.083.176.125.259h4.442l-.032-.111c-.94-5.616-3.961-7.344-5.553-7.866a15.312 15.312 0 00-.691 3.834 41.772 41.772 0 001.709 3.884z" fill="#956363"></path><path d="M276.758 189.031a14.031 14.031 0 00.371 4.156h1.463c-.042-.088-.081-.176-.125-.259a41.397 41.397 0 01-1.709-3.897z" fill="#956363"></path><path opacity="0.15" d="M276.758 189.031a14.031 14.031 0 00.371 4.156h1.463c-.042-.088-.081-.176-.125-.259a41.397 41.397 0 01-1.709-3.897z" fill="#000"></path><path d="M261.261 193.173l-1.653-2.785c-3.597-6.156-6.478-6.779-8.016-6.494-.443.071-.863.25-1.22.52-1.668 1.096-1.819 3.286-1.497 5.283a13.08 13.08 0 001.071 3.476h11.315z" fill="#956363"></path><path d="M257.787 164.318s-8.068.429-8.053 8.175c0 .545.05 1.088.037 1.631-.042 2.024-.33 6.045-1.894 7.725l1.112.26s1.511-2.14 1.478-3.896c0 0 .743 2.512.049 4.255 0 0 2.421 1.576 8.159 1.426 0 0 2.021-4.055-.145-8.154a7.163 7.163 0 00-.338-.566c-.314-.489-1.213-2.198-.649-5.063l.244-5.793z" fill="#000"></path><path d="M259.112 171.268c1.618-.158 2.763-1.987 2.557-4.084-.206-2.098-1.684-3.67-3.301-3.511-1.618.159-2.763 1.988-2.557 4.085.206 2.097 1.684 3.669 3.301 3.51z" fill="#00B29D"></path><path d="M264.083 177.542a7.196 7.196 0 01-5.84-4.98c-1.48-4.389-.779-6.644.221-9.234.745-1.948 4.128-5.052 8.141-4.639 4.013.413 6.426 2.405 7.146 6.011 1.348 6.743-2.956 15.697-9.668 12.842z" fill="#000"></path><path d="M262.225 171.945l-2.018 11.601.823.486a9.293 9.293 0 004.619 1.288 9.252 9.252 0 004.644-1.189l-.859-8.765-7.209-3.421z" fill="#956363"></path><path opacity="0.3" d="M269.74 177.973c-.893.418-.779.59-1.761.519l-.67-.054a.882.882 0 01-.244-.044h-.047c-.122-.034-.244-.044-.39-.083-.046 0-.096-.034-.143-.037a5.56 5.56 0 01-1.862-.841.161.161 0 00-.055-.029.149.149 0 00-.063-.005.135.135 0 00-.061.021.184.184 0 00-.044.044.178.178 0 00-.034.122.169.169 0 00.062.109 6.14 6.14 0 002.426 1.039 4.794 4.794 0 002.78 1.239c.41.034-.26.034.143-.034l-.037-1.966z" fill="#000"></path><path d="M271.988 176.95a5.404 5.404 0 01-1.797 1.142 5.395 5.395 0 01-2.099.362h-.416a5.302 5.302 0 01-2.062-.501 5.42 5.42 0 01-1.717-1.278 5.673 5.673 0 01-1.107-1.857 5.732 5.732 0 01-.322-2.156l.307-7.842a1.94 1.94 0 01.166-.707c.102-.222.244-.422.421-.589a1.798 1.798 0 011.306-.497l7.144.26a2.328 2.328 0 011.636.779 2.45 2.45 0 01.618 1.736l-.301 7.273a5.729 5.729 0 01-1.777 3.875z" fill="#956363"></path><path d="M268.001 169.977a.59.59 0 10-.637.556.589.589 0 00.577-.331.606.606 0 00.06-.225z" fill="#000"></path><path d="M267.546 170.028a.127.127 0 00-.109-.134.125.125 0 00-.094.031.128.128 0 00-.015.182.128.128 0 00.088.046.121.121 0 00.05-.007.118.118 0 00.08-.118z" fill="#fff"></path><path d="M272.571 170.355a.59.59 0 10-1.149.153.592.592 0 00.745.374.591.591 0 00.404-.527z" fill="#000"></path><path d="M272.122 170.376a.127.127 0 00-.068-.117.13.13 0 00-.07-.011.122.122 0 00.008.242.154.154 0 00.048-.005.13.13 0 00.041-.024.117.117 0 00.029-.038.13.13 0 00.012-.047z" fill="#fff"></path><path opacity="0.15" d="M262.198 171.987l.829.068-1.062 1.636.233-1.704z" fill="#000"></path><path opacity="0.3" d="M270.714 173.127a.626.626 0 01-.137.242.609.609 0 01-.224.161.592.592 0 01-.259.049l-.78.013a.19.19 0 01-.075 0 .157.157 0 01-.109-.088.196.196 0 01-.024-.073.314.314 0 010-.075.215.215 0 01.039-.063.288.288 0 01.065-.039.18.18 0 01.073 0h.779a.353.353 0 00.322-.233.37.37 0 00-.088-.403.384.384 0 00-.26-.12.16.16 0 01-.101-.057.176.176 0 01-.044-.109.181.181 0 01.028-.111.179.179 0 01.094-.071.692.692 0 01.496.211c.135.139.21.326.211.519a.642.642 0 01-.006.247z" fill="#000"></path><path d="M262.739 172.202s-2.597.239-3.148-2.413c-.55-2.652 2.629-3.146 3.086-.481l.348 2.917-.286-.023z" fill="#956363"></path><path opacity="0.3" d="M260.299 168.61a.206.206 0 01-.001-.123.213.213 0 01.071-.101c.108-.088.234-.154.369-.192.134-.036.275-.044.413-.023a.945.945 0 01.631.509c.191.312.29.672.286 1.039v.278c.013.202-.338.278-.341.023l-.026-.304a1.883 1.883 0 00-.223-.855.717.717 0 00-.413-.363.725.725 0 00-.532.158.186.186 0 01-.128.026.186.186 0 01-.111-.07l.005-.002z" fill="#000"></path><path d="M270.438 174.588a.15.15 0 01.05.018c.014.01.026.023.034.039a.095.095 0 01.012.05.092.092 0 010 .052c-.16.278-.396.506-.68.657a1.642 1.642 0 01-1.785-.146 1.741 1.741 0 01-.561-.761c-.018-.078 0-.148.109-.14l2.821.231z" fill="#fff"></path><path d="M262.285 165.954s-1.857-6.234 7.655-4.527c5.481.976 6.029 3.356 6.25 4.587.221 1.231-2.857-.678-2.857-.678s.153 2.494-.881 1.818c-1.265-.82-2.779-2.714-2.779-2.714s-2.871 3.452-5.975 2.914c-1.777-.301-1.413-1.4-1.413-1.4z" fill="#000"></path><path d="M264.275 164.667s-1.265 4.847-1.265 5.798c0 1.298-2.132-2.938-.779-6.868l2.044 1.07z" fill="#000"></path><path d="M261.749 176.29a.13.13 0 00.13-.13v-4.676a.13.13 0 00-.26 0v4.676a.13.13 0 00.13.13z" fill="#4D61FC"></path><path d="M266.084 168.592c1.73-.813 2.559-.202 2.559-.202l.049.195s-1.592-.244-2.455.127l-.153-.12zM273.552 168.934c-1.652-.961-2.53-.426-2.53-.426l-.065.187s1.608-.101 2.431.345l.164-.106z" fill="#000"></path><path d="M238.047 191.175a2.896 2.896 0 100-5.792 2.896 2.896 0 000 5.792z" fill="#4D61FC"></path><path opacity="0.3" d="M238.047 191.175a2.896 2.896 0 100-5.792 2.896 2.896 0 000 5.792z" fill="#000"></path><path d="M238.31 187.178h-1.689a.22.22 0 00-.221.221v1.756c0 .122.099.22.221.22h1.689a.22.22 0 00.22-.22v-1.756a.22.22 0 00-.22-.221zM239.964 189.277l-.868-.242a.298.298 0 01-.215-.288v-.949c0-.064.021-.127.06-.179a.302.302 0 01.158-.106l.87-.237-.005 2.001z" fill="#fff"></path><path d="M245.758 191.175a2.896 2.896 0 100-5.792 2.896 2.896 0 000 5.792z" fill="#4D61FC"></path><path opacity="0.3" d="M245.758 191.175a2.896 2.896 0 100-5.792 2.896 2.896 0 000 5.792z" fill="#000"></path><path d="M244.415 187.932l.849 1.644a.165.165 0 00.224.071l.503-.26a.167.167 0 00.071-.224l-.848-1.644a.169.169 0 00-.224-.07l-.504.26a.166.166 0 00-.071.223z" fill="#fff"></path><path d="M245.229 189.521l1.298-.673a.26.26 0 01.348.112l.219.423a.262.262 0 01-.115.349l-.647.319c-.345.179-.787.086-1.103-.53zM244.46 188.033l1.299-.67a.259.259 0 00.109-.348l-.219-.421a.252.252 0 00-.152-.127.262.262 0 00-.198.018l-.634.34c-.343.179-.522.592-.205 1.208z" fill="#fff"></path><path d="M467.419 185.108l27.015-47.593a6.369 6.369 0 00-.455-4.393l-18.297-37.08a6.38 6.38 0 00-5.218-3.538l-82.957-6.595a6.383 6.383 0 00-6.33 3.748l-18.528 41.33a6.346 6.346 0 00-.52 3.242l9.227 38.842a6.373 6.373 0 005.423 4.854l84.326 10.362a6.377 6.377 0 006.314-3.179z" fill="#F4F4F4"></path><path d="M468.971 106.537h-81.515a3.387 3.387 0 00-3.39 3.377v54.24a3.394 3.394 0 003.39 3.39h81.515a3.385 3.385 0 002.392-.994 3.386 3.386 0 00.985-2.396v-54.227a3.386 3.386 0 00-.985-2.396 3.367 3.367 0 00-2.392-.994z" fill="#61656D"></path><path opacity="0.2" d="M468.971 106.537h-81.515a3.387 3.387 0 00-3.39 3.377v54.24a3.394 3.394 0 003.39 3.39h81.515a3.385 3.385 0 002.392-.994 3.386 3.386 0 00.985-2.396v-54.227a3.386 3.386 0 00-.985-2.396 3.367 3.367 0 00-2.392-.994z" fill="#000"></path><path d="M471.076 113.746h-88.281v49.767h88.281v-49.767z" fill="#61656D"></path><path d="M384.873 106.537h84.125a2.08 2.08 0 012.078 2.078v5.146h-88.281v-5.146a2.077 2.077 0 012.078-2.078zM382.795 163.514h88.279v1.961a2.075 2.075 0 01-2.079 2.078h-84.122a2.075 2.075 0 01-2.078-2.078v-1.961z" fill="#61656D"></path><path d="M466.046 112.232a1.84 1.84 0 100-3.678 1.84 1.84 0 000 3.678z" fill="#DADDDF"></path><path d="M469.956 113.834h-86.04v49.59h86.04v-49.59z" fill="#4D61FC"></path><path opacity="0.7" d="M469.956 113.834h-86.04v49.59h86.04v-49.59z" fill="#fff"></path><path d="M433.593 145.19l-1.738-12.819-10.878.894.08 12.271 6.642 2.888 5.894-3.234z" fill="#FFC176"></path><path d="M410.016 161.682a.296.296 0 00-.087.21l-.314 1.74h-10.39l1.574-6.932a8.547 8.547 0 016.868-6.528l12.44-2.172 15.037-.143 11.645 2.247a8.567 8.567 0 013.885 1.853 8.56 8.56 0 012.489 3.511l3.099 8.164h-11.169l-.78-2.026-.078 2.026H410.49l.031-1.74a.3.3 0 00-.086-.21.3.3 0 00-.419 0z" fill="#CA0E68"></path><path d="M426.463 152.018l-.024.422.052-.396-.028-.026z" fill="#4D61FC"></path><path d="M429.198 152.441l-.026-.462.026.462z" fill="#21252B"></path><path opacity="0.3" d="M429.198 152.441l-.026-.462.026.462z" fill="#000"></path><path d="M410.227 161.606a.294.294 0 00-.206.084.293.293 0 00-.09.202l-.312 1.741h.873l.031-1.741a.297.297 0 00-.296-.286z" fill="#21252B"></path><path opacity="0.2" d="M410.227 161.606a.294.294 0 00-.206.084.293.293 0 00-.09.202l-.312 1.741h.873l.031-1.741a.297.297 0 00-.296-.286z" fill="#000"></path><path d="M444.236 163.633h.865l-.787-2.027-.078 2.027z" fill="#21252B"></path><path opacity="0.2" d="M444.236 163.633h.865l-.787-2.027-.078 2.027z" fill="#000"></path><path d="M432.768 126.285c.201.499.33 1.023.385 1.558.324 3.138.924 14.645-5.975 15.152-5.922.444-7.533-7.793-7.969-11.923-.146-1.395.023-3.582.486-4.907a5.709 5.709 0 014.758-3.79l1.32-.148a7.104 7.104 0 012.691.221 6.526 6.526 0 014.294 3.839l.01-.002z" fill="#FFC176"></path><path d="M433.152 127.839a5.738 5.738 0 00-.385-1.558 6.532 6.532 0 00-4.294-3.84 7.084 7.084 0 00-2.691-.22l-1.319.148a5.714 5.714 0 00-4.759 3.789 10.734 10.734 0 00-.486 4.388c.034.298.07.623.117.961l.8.696.52-4.676c.205-1.836 1.371-1.267 1.86-.94.27.185.557.345.857.478 1.213.52 3.896 1.299 5.855-.836 0 0 1.558-1.559 2.078.259l1.558 5.195.52-.259a71.16 71.16 0 00-.231-3.585z" fill="#000"></path><path opacity="0.15" d="M433.236 141.779l-.593-4.021c-.727 2.597-2.239 4.753-4.886 5.195h.026l-.566.08c-2.104.162-3.86-.807-5.195-2.891a.173.173 0 00-.11-.076.171.171 0 00-.132.022.178.178 0 00-.054.244c1.405 2.213 3.268 3.239 5.507 3.078a5.582 5.582 0 001.379-.26 6.434 6.434 0 004.624-1.371z" fill="#000"></path><path d="M419.898 132.407c-.101-1.026-1.242-1.559-2-.891l-.026.026c-1.299 1.189-.455 4.914 2.384 4.592l-.358-3.727zM434.319 130.435l-.018-.026c-.629-.541-1.405.161-1.385 1.189l.112 3.562c2.143-.102 2.354-3.756 1.291-4.725z" fill="#FFC176"></path><path d="M423.893 134.488a.709.709 0 00.648-.433.703.703 0 10-.648.433z" fill="#21252B"></path><path d="M423.571 133.865a.16.16 0 10-.001-.321.16.16 0 00.001.321z" fill="#fff"></path><path d="M429.297 134.081a.704.704 0 00.648-.433.702.702 0 10-.648.433z" fill="#21252B"></path><path d="M428.965 133.484a.158.158 0 00.148-.099.163.163 0 00-.035-.175.16.16 0 00-.226 0 .163.163 0 000 .227.154.154 0 00.113.047z" fill="#fff"></path><path opacity="0.15" d="M426.944 137.106l.566-.054a.202.202 0 00.188-.217.2.2 0 00-.217-.188l-.563.054a.428.428 0 01-.415-.241.44.44 0 01-.022-.33.446.446 0 01.382-.291.21.21 0 00.151-.063.203.203 0 00.043-.072.19.19 0 00.012-.082.205.205 0 00-.151-.182.216.216 0 00-.084-.004.796.796 0 00-.568.284.796.796 0 00-.185.607c0 .11.022.219.066.319a.775.775 0 00.797.46z" fill="#000"></path><path d="M431.237 131.515l-3.049.169-.405.029-2.673.161h-.039l-3.429.187a1.009 1.009 0 00-.946 1.083l.055.779a2.748 2.748 0 003.928 2.329 2.76 2.76 0 001.403-1.564c.12-.34.172-.701.152-1.061l-.054-.779a.977.977 0 00-.242-.595l1.055-.052a.97.97 0 00-.164.618l.055.779a2.749 2.749 0 001.829 2.442 2.734 2.734 0 002.099-.113 2.744 2.744 0 001.555-2.625l-.052-.779a1.02 1.02 0 00-1.078-1.008zm-5.455 1.325l.055.779a2.347 2.347 0 01-.49 1.834 2.345 2.345 0 01-1.689.866 2.335 2.335 0 01-2.308-1.483 2.331 2.331 0 01-.157-.957l-.055-.779a.622.622 0 01.556-.637l3.429-.187h.026a.578.578 0 01.444.139.59.59 0 01.14.192.55.55 0 01.049.233zm6.185.431c-.026.579-.266 1.602-.673 2.013a2.336 2.336 0 01-1.532.69c-.578.033-1.344-.209-1.927-.786-.427-.674-.422-1.085-.512-1.657l-.055-.779a.623.623 0 01.567-.645l.405-.028 3.052-.161a.616.616 0 01.435.154.616.616 0 01.209.412l.031.787z" fill="#282828"></path><path d="M425.22 138.212l3.429-.244a.137.137 0 01.135.163 1.937 1.937 0 01-.636.976 1.94 1.94 0 01-2.215.181 1.95 1.95 0 01-.785-.86v-.029a.12.12 0 01-.015-.113.117.117 0 01.087-.074z" fill="#fff"></path><path opacity="0.2" d="M420.092 148.11l5.029 5.19 2.579-4.582 2.865 4.582 4.414-5.273-7.279.403-7.608-.32z" fill="#000"></path><path opacity="0.15" d="M419.184 134.352a.227.227 0 01-.135-.059.227.227 0 01-.067-.131l-.05-.431a1.533 1.533 0 00-.356-.946.39.39 0 00-.301-.109.182.182 0 01-.077-.002.184.184 0 01-.07-.031.192.192 0 01-.081-.128.208.208 0 01.15-.241.852.852 0 01.608.161c.278.215.455.646.507 1.215l.049.431a.262.262 0 01-.177.271zM433.642 133.243c.076 0 .133-.106.133-.215v-.432a1.66 1.66 0 01.169-.974c.096-.161.21-.161.228-.161.076 0 .133-.08.151-.187a.218.218 0 00-.133-.215.515.515 0 00-.415.259c-.19.26-.26.702-.247 1.299v.431c-.026.115.029.195.114.195z" fill="#000"></path><path d="M420.996 145.278l-1.031 2.723 5.156 4.439 2.579-4.011-6.704-3.151z" fill="#CA0E68"></path><path d="M433.572 145.137l1.574 2.722-4.582 4.582-2.865-4.011 5.873-3.293z" fill="#CA0E68"></path><path d="M391.813 161.375a3.23 3.23 0 100-6.459 3.23 3.23 0 000 6.459z" fill="#4D61FC"></path><path opacity="0.3" d="M391.813 161.375a3.23 3.23 0 100-6.459 3.23 3.23 0 000 6.459z" fill="#000"></path><path d="M392.13 156.922h-1.933a.22.22 0 00-.22.221v2.01a.22.22 0 00.22.221h1.933a.221.221 0 00.221-.221v-2.01a.221.221 0 00-.221-.221zM393.952 159.262l-.966-.26a.328.328 0 01-.242-.32v-1.057c0-.073.024-.143.069-.201a.326.326 0 01.175-.118l.969-.26-.005 2.216z" fill="#fff"></path><path d="M400.412 161.375a3.229 3.229 0 100-6.458 3.229 3.229 0 000 6.458z" fill="#4D61FC"></path><path opacity="0.3" d="M400.412 161.375a3.229 3.229 0 100-6.458 3.229 3.229 0 000 6.458z" fill="#000"></path><path d="M398.9 157.744l.964 1.867a.166.166 0 00.224.072l.593-.307a.167.167 0 00.071-.224l-.964-1.867a.167.167 0 00-.224-.071l-.593.306a.165.165 0 00-.071.224z" fill="#fff"></path><path d="M399.82 159.532l1.45-.751a.288.288 0 01.387.125l.244.47a.297.297 0 01.018.221.286.286 0 01-.145.169l-.72.356c-.384.2-.878.096-1.234-.59zM398.964 157.875l1.45-.748a.288.288 0 00.122-.387l-.242-.473a.276.276 0 00-.071-.088.287.287 0 00-.321-.031l-.707.379c-.384.198-.587.66-.231 1.348zM464.351 122.89H439.56a.462.462 0 00-.462.462v17.957c0 .255.207.462.462.462h24.791a.462.462 0 00.463-.462v-17.957a.462.462 0 00-.463-.462z" fill="#fff"></path><path fill-rule="evenodd" clip-rule="evenodd" d="M450.988 125.312h2.497v13.055h-2.497v-13.055zM447.326 132.418h2.496v5.948h-2.496v-5.948zM443.662 134.179h2.499v4.187h-2.499v-4.187zM454.652 135.579h2.499v2.787h-2.499v-2.787z" fill="#FFA800"></path><path d="M442.691 124.697a.185.185 0 01.184.185v14.395h20.165a.17.17 0 01.071.015.181.181 0 01.1.241.181.181 0 01-.1.099.17.17 0 01-.071.014h-20.536v-14.764c0-.025.005-.049.014-.071a.194.194 0 01.102-.1.191.191 0 01.071-.014z" fill="#3F4249"></path><path d="M101.882 225.217L76.28 171.426a6.711 6.711 0 011.19-4.491l24.978-35.568a6.702 6.702 0 015.99-2.834l87.237 6.509a6.703 6.703 0 015.974 4.915l12.588 45.915a6.7 6.7 0 01.026 3.452l-28.833 38.862a6.698 6.698 0 01-6.413 4.182l-71.083-2.829a6.7 6.7 0 01-6.052-4.322z" fill="#F4F4F4"></path><path d="M187.63 146.925h-85.757a3.564 3.564 0 00-3.566 3.566v57.069a3.567 3.567 0 003.566 3.566h85.757a3.567 3.567 0 003.566-3.566v-57.069a3.567 3.567 0 00-3.566-3.566z" fill="#61656D"></path><path opacity="0.2" d="M187.63 146.925h-85.757a3.564 3.564 0 00-3.566 3.566v57.069a3.567 3.567 0 003.566 3.566h85.757a3.567 3.567 0 003.566-3.566v-57.069a3.567 3.567 0 00-3.566-3.566z" fill="#3B72FF"></path><path d="M189.858 154.511h-92.89v52.364h92.89v-52.364z" fill="#3B72FF"></path><path d="M99.047 146.925h88.733a2.078 2.078 0 012.078 2.078v5.512h-92.89V149a2.08 2.08 0 012.079-2.075z" fill="#3B72FF"></path><path d="M188.68 154.606H98.146v52.181h90.534v-52.181z" fill="#4D61FC"></path><path opacity="0.7" d="M188.68 154.606H98.146v52.181h90.534v-52.181z" fill="#fff"></path><path d="M171.905 197.332l5.044 13.768c-1.241-1.648-39.492.732-39.126-1.622l-11.726 1.622 6.747-14.823a8.6 8.6 0 015.757-4.447l8.685-1.614 5.435.281 5.442.085 8.298 1.924a8.595 8.595 0 015.444 4.826z" fill="#4D61FC"></path><path d="M153.278 210.357h-4.659l-.129-.236a33.304 33.304 0 01-1.224-2.637c-.088-.286-.179-.592-.259-.847-.559-1.6-1.077-3.231-1.217-4.935-.069-.842-.124-1.686-.212-2.525l-.828-7.896.111-.037 11.942-.496 2.153.52-2.357 8.052-3.321 11.037z" fill="#21252B"></path><path d="M147.176 204.037a33 33 0 001.228 2.637 38.607 38.607 0 01-.992-1.972 6.252 6.252 0 01-.236-.665zM156.533 195.884l2.367-8.058.005-.023.052.013-2.424 8.068z" fill="#4D61FC"></path><path opacity="0.3" d="M142.348 188.161l.029-.072-.024.069-.005.003z" fill="#000"></path><path d="M170.492 206.913h-.922l.244-.951.678.951z" fill="#4D61FC"></path><path d="M146.178 190.228c-.405.259-.98.303-1.587.202-2.502-.405-4.393-.743-4.595-3.275-.26-3.985.574-12.801 3.748-17.833 2.164 1.115 2.501 1.621 2.501 1.621s3.208-.979 3.276-1.013c0-.034 1.047 17.427-3.343 20.298zM154.046 187.661l1.789-21.246c1.083-.169 2.806 1.252 3.312 1.819 4.052 4.626 5.032 14.185 4.458 20.567-.203 2.465-1.79 2.803-4.221 3.278-2.432.476-5.271.709-6.318-.519-.506-.624.98-3.899.98-3.899z" fill="#000"></path><path d="M156.396 182.279l.452 9.734c.021.444-.402.749-.686 1.135-1.636 2.223-6.862 4.354-10.476.089-.319-.38-.615-.773-.519-1.233l1.54-7.031 9.689-2.694z" fill="#FFC176"></path><path opacity="0.15" d="M146.229 188.377l.345-2.078 3.418 1.039c-.011.011-.023.022-.033.034a7.634 7.634 0 002.73-.634.243.243 0 01.197.444 7.907 7.907 0 01-3.104.678c-.135 0-.275 0-.413-.016-1.356.858-3.14.533-3.14.533z" fill="#000"></path><path d="M148.722 187.255l.478.06c3.564.441 6.954-2.325 7.396-5.887l1.158-9.016a2.166 2.166 0 00-1.868-2.416l-8.431-1.075a2.82 2.82 0 00-2.08.567 2.829 2.829 0 00-1.069 1.872l-1.078 8.398c-.444 3.53 1.762 7.138 5.494 7.497z" fill="#FFC176"></path><path d="M150.48 182.837l-.232.364a1.6 1.6 0 01-1.328.68 1.594 1.594 0 01-1.308-.719l-.26-.424c-.054-.09-.013-.205.094-.194l2.932.109c.091-.021.164.104.102.184z" fill="#fff"></path><path d="M151.841 179.227a.708.708 0 01-.769-.783.718.718 0 01.504-.608.714.714 0 01.752 1.137.714.714 0 01-.487.254z" fill="#21252B"></path><path d="M151.463 178.693a.134.134 0 01-.111-.121.128.128 0 01.021-.083.125.125 0 01.067-.055.137.137 0 01.06-.008.15.15 0 01.058.021.147.147 0 01.043.043.137.137 0 01.011.119.146.146 0 01-.088.081.157.157 0 01-.061.003z" fill="#fff"></path><path d="M146.406 178.846a.707.707 0 01-.765-.785.715.715 0 01.508-.603.706.706 0 01.903.622.71.71 0 01-.646.766z" fill="#21252B"></path><path d="M146.001 178.278c-.019.007-.04.009-.061.007a.134.134 0 01-.058-.02.163.163 0 01-.043-.044.136.136 0 01-.018-.059.126.126 0 01.009-.061.137.137 0 01.089-.08.14.14 0 01.061-.002c.02-.007.04-.01.061-.007a.13.13 0 01.058.02.15.15 0 01.043.044c.01.018.017.038.018.059a.134.134 0 01-.159.143z" fill="#fff"></path><path opacity="0.15" d="M148.508 181.477h.943c.107 0 .221-.091.195-.19-.026-.099-.091-.221-.19-.197h-.942a.42.42 0 01-.419-.419c0-.11.044-.217.123-.295a.416.416 0 01.296-.123c.106 0 .22-.091.194-.189-.026-.099-.091-.221-.189-.195a.85.85 0 00-.831.839.797.797 0 00.82.769z" fill="#000"></path><path d="M142.461 172.836h-.371c2.839-9.424 13.003-9.352 17.092-4.559 2.465 2.904 3.512 7.631 3.512 7.631-.811 1.756-3.039 3.141-3.748 4.359-.304.541-.946-1.995-1.385-2.338-.068-.033-.608.52-.979.878a.387.387 0 01-.678-.202 10.407 10.407 0 01.135-3.546l.236-1.039c-2.262-.743-9.091-3.411-10.603-3.917-.372-.135-.709.439-.811.81l-1.298 5.559-.764-2.857-.338-.779z" fill="#000"></path><path d="M155.768 182.261s2.94 1.013 4.325-1.79c1.384-2.803-2.128-4.291-3.444-1.454l-1.253 3.143.372.101z" fill="#FFC176"></path><path opacity="0.15" d="M159.585 178.643a1.148 1.148 0 00-.845-.473 1.12 1.12 0 00-.878.405 2.624 2.624 0 00-.641 1.081l-.102.306c-.067.237.304.406.406.135l.101-.337c.109-.327.286-.627.52-.881a.803.803 0 01.574-.26c.226.04.429.16.574.338a.21.21 0 00.259.034.256.256 0 00.083-.168.258.258 0 00-.051-.18z" fill="#000"></path><path d="M142.714 177.852a2.817 2.817 0 105.601.615 2.89 2.89 0 00-.234-1.504 2.369 2.369 0 011.408.086 2.398 2.398 0 00-.26.886 2.818 2.818 0 003.042 3.109 2.818 2.818 0 002.441-1.952 2.821 2.821 0 00-.867-3.004 2.816 2.816 0 00-1.499-.647 2.89 2.89 0 00-2.657 1.276 2.557 2.557 0 00-1.748-.073 2.79 2.79 0 00-2.047-1.299 2.91 2.91 0 00-3.18 2.507zm6.902.135a2.45 2.45 0 013.179-2.065 2.446 2.446 0 011.701 2.128 2.454 2.454 0 01-2.714 2.646 2.462 2.462 0 01-2.166-2.709zm-6.494-.122a2.45 2.45 0 013.179-2.065 2.446 2.446 0 011.701 2.127 2.456 2.456 0 01-1.314 2.387 2.452 2.452 0 01-1.4.26 2.42 2.42 0 01-1.649-.901 2.425 2.425 0 01-.514-1.808h-.003z" fill="#fff"></path><path d="M156.817 182.022a.61.61 0 01-.595-.731.602.602 0 01.484-.474.606.606 0 01.622.269.609.609 0 01.097.341.613.613 0 01-.608.595z" fill="#4D61FC"></path><path opacity="0.15" d="M156.379 182.396l-1.039-.237.81 2.598.229-2.361z" fill="#000"></path><path d="M144.893 170.877c5.715-1.351 4.762 7.192 10.671 6.044 5.541-1.08.54-7.767.54-7.767l-4.896-.878-6.585.811.27 1.79zM156.38 182.395s-1.016 5.639-3.987 9.455c0 0 3.987.948 7.06.239 2.836-.645-3.073-9.694-3.073-9.694z" fill="#000"></path><path d="M110.499 189.856l-.94 1.275-.647-.8a1.95 1.95 0 01-.283-.485l-1.512-3.762a.194.194 0 01-.013-.086.198.198 0 01.027-.083.196.196 0 01.062-.063.2.2 0 01.083-.028h.101a1.087 1.087 0 011.101.593l.759 1.519c.143.29.308.569.493.834l.52.735.249.351zM112.199 188.317l-1.698 1.54-.164-.576-1.842-6.346a.697.697 0 01.5-.854.692.692 0 01.734.255.709.709 0 01.12.245c.226.943.735 2.902 1.457 4.372.228.497.529.956.893 1.364zM112.615 183.82l-.416 4.496-.654-1.94-1.943-5.78a.727.727 0 011.35-.519l1.663 3.743z" fill="#FFC176"></path><path d="M119.498 196.621a1.422 1.422 0 00-.021.92l.819 2.618-6.172 1.299-.208-2.546a1.495 1.495 0 00-.499-.982c-.732-.639-2.254-2.397-3.855-6.798l.686-1.644.26.366-.166-.574.969-2.338c.228.497.529.957.893 1.364l-.66-1.914 1.071-2.559-.803-2.533a.662.662 0 01-.034-.166.633.633 0 01.608-.649.517.517 0 01.574.28l2.182 4.499c.165.333.298.681.395 1.039a7.594 7.594 0 001.631 2.946c.25.345.537.662.857.943a1.7 1.7 0 00.359.242c.457.215.68-.076.779-.387.091-.275.102-.57.031-.85-.163-.686-.519-2.444 0-3.413a.56.56 0 01.506-.304.558.558 0 01.492.325c.644 1.426.961 4.566 1.039 5.582.017.212-.012.425-.083.626l-1.65 4.608z" fill="#FFC176"></path><path d="M112.809 198.6l8.052-1.559 3.743 9.741-10.452.13-1.343-8.312zM105.078 205.006a3.228 3.228 0 10.002-6.456 3.228 3.228 0 00-.002 6.456z" fill="#4D61FC"></path><path opacity="0.3" d="M105.078 205.006a3.228 3.228 0 10.002-6.456 3.228 3.228 0 00-.002 6.456z" fill="#000"></path><path d="M105.396 200.554h-1.933a.22.22 0 00-.221.22v2.011c0 .122.099.221.221.221h1.933a.22.22 0 00.22-.221v-2.011a.22.22 0 00-.22-.22zM107.214 202.896l-.967-.26a.325.325 0 01-.241-.319v-1.06a.33.33 0 01.249-.32l.969-.259-.01 2.218z" fill="#fff"></path><path d="M113.676 205.006a3.229 3.229 0 100-6.457 3.229 3.229 0 000 6.457z" fill="#4D61FC"></path><path opacity="0.3" d="M113.676 205.006a3.229 3.229 0 100-6.457 3.229 3.229 0 000 6.457z" fill="#000"></path><path d="M112.163 201.375l.964 1.867a.166.166 0 00.224.072l.593-.307a.166.166 0 00.072-.224l-.964-1.867a.167.167 0 00-.224-.071l-.593.306a.166.166 0 00-.072.224z" fill="#fff"></path><path d="M113.082 203.164l1.449-.751a.29.29 0 01.388.125l.244.47a.283.283 0 01.017.221.268.268 0 01-.055.099.308.308 0 01-.09.07l-.727.356c-.377.2-.87.096-1.226-.59zM112.23 201.509l1.449-.75a.287.287 0 00.154-.28.266.266 0 00-.032-.107l-.241-.471a.294.294 0 00-.393-.122l-.709.38c-.384.2-.587.662-.228 1.35zM117.629 160.674h13.949a1.04 1.04 0 011.039 1.039v6.754a1.038 1.038 0 01-1.039 1.039h-1.255l-.028 2.787-2.788-2.787h-9.87a1.04 1.04 0 01-1.039-1.039v-6.754a1.039 1.039 0 011.031-1.039z" fill="#fff"></path><g opacity="0.3" fill="#000"><path opacity="0.3" d="M128.746 166.255a1.167 1.167 0 100-2.334 1.167 1.167 0 000 2.334zM124.604 166.255a1.166 1.166 0 100-2.332 1.166 1.166 0 000 2.332zM120.461 166.256a1.167 1.167 0 100-2.334 1.167 1.167 0 000 2.334z"></path></g><path d="M96.969 206.874h92.889v2.172a2.077 2.077 0 01-2.078 2.078H99.047a2.077 2.077 0 01-2.078-2.078v-2.172z" fill="#3B72FF"></path><path d="M378.744 106.564l8.785-50.352a5.986 5.986 0 00-1.792-3.72l-27.756-26.856a5.97 5.97 0 00-5.714-1.47l-75.011 20.316a5.973 5.973 0 00-4.384 5.288l-3.289 42.167a5.96 5.96 0 00.553 3.016l20.337 31.251a5.952 5.952 0 006.299 2.561l77.408-17.427a5.963 5.963 0 003.005-1.696 5.969 5.969 0 001.559-3.078z" fill="#F4F4F4"></path><path d="M369.899 45.946h-82.687c-.91 0-1.782.356-2.427.989a3.37 3.37 0 00-1.012 2.388v54.24c0 .899.363 1.762 1.008 2.397a3.46 3.46 0 002.431.993h82.687a3.436 3.436 0 002.427-.994 3.349 3.349 0 00.999-2.396V49.336a3.3 3.3 0 00-.256-1.296 3.423 3.423 0 00-1.855-1.835 3.47 3.47 0 00-1.315-.259z" fill="#3B72FF"></path><path d="M372.055 53.157h-88.282v49.767h88.282V53.157z" fill="#4D61FC"></path><path opacity="0.2" d="M372.055 53.157h-88.282v49.767h88.282V53.157z" fill="#3B72FF"></path><path d="M367.021 51.642a1.84 1.84 0 100-3.679 1.84 1.84 0 000 3.679z" fill="#DADDDF"></path><path d="M370.928 53.244h-86.039v49.59h86.039v-49.59z" fill="#4D61FC"></path><path opacity="0.7" d="M370.928 53.244h-86.039v49.59h86.039v-49.59z" fill="#fff"></path><path d="M302.928 89.39l-1.818-2.675-3.392-2.101a.463.463 0 00-.411-.046.441.441 0 00-.176.12.43.43 0 00-.104.186c-.289.595 2.974 2.517 3.241 2.875l.985 2.198-.985-2.198-2.815-1.753c-.52-.31-.84.483-.367.745 3.032 2.182 2.564 1.798 4.063 5.157l-1.444-3.18c-.205-.029-3.401-1.959-2.416-.52 2.73 1.702 2.338 1.684 3.8 4.4l1.839-3.207z" fill="#FC9D9D"></path><path opacity="0.15" d="M302.928 89.39l-1.818-2.675-3.392-2.101a.463.463 0 00-.411-.046.441.441 0 00-.176.12.43.43 0 00-.104.186c-.289.595 2.974 2.517 3.241 2.875l.985 2.198-.985-2.198-2.815-1.753c-.52-.31-.84.483-.367.745 3.032 2.182 2.564 1.798 4.063 5.157l-1.444-3.18c-.205-.029-3.401-1.959-2.416-.52 2.73 1.702 2.338 1.684 3.8 4.4l1.839-3.207z" fill="#000"></path><path d="M303.628 89.001l1.088 5.118c.062.299.195.578.387.815l5.751 6.99-6.107.86-2.53-4.236c-1.343-1.323-3.132-2.4-3.405-4.484v-.015c0-.67-1.996-2.421-1.847-3.053 1.353-1.166 2.888 2.619 3.961.653.039-.375 1.133-2.764.818-3.094 0-.304-2.857-4.738-2.184-4.915.751-.512 3.647 4.97 4.068 5.361z" fill="#FC9D9D"></path><path opacity="0.15" d="M310.751 101.99c-5.484 2.166-4.842 0-7.655-3.873-1.13-1.416-3.044-1.717-4.291-4.156 0 .016.018.086.033.09.276 2.079 2.06 3.165 3.408 4.482l2.502 3.992 6.003-.535z" fill="#000"></path><path d="M340.803 102.783c1.202-10.681 2.956-18.63 3.896-21.56l-.138-.037-10.6.091-.689.245c-.111 2.452-1.104 10.78-2.46 21.271l9.991-.01z" fill="#fff"></path><path d="M340.803 102.783h12.671l.576-1.939.309 1.939h10.048l-2.05-12.11a5.777 5.777 0 00-.259-1.587c-.78-2.47-3.089-4.52-5.471-5.071l-11.933-2.829c-.935 2.935-2.689 10.897-3.891 21.597zM322.571 102.317v.467h8.247c1.356-10.491 2.338-18.82 2.46-21.271l-5.811 1.623c-2.163.605-3.784 2.11-4.416 3.954l-6.41 15.694h5.865l.065-.467zM312.765 102.782l-4.959-5.9-3.925 3.284 1.974 2.616h6.91z" fill="#21252B"></path><path opacity="0.3" d="M303.834 100.1l-.904.865.953-.798-.049-.067z" fill="#000"></path><path d="M303.883 100.167l-.953.797 1.156 1.819h1.771l-1.974-2.616z" fill="#21252B"></path><path opacity="0.3" d="M303.883 100.167l-.953.797 1.156 1.819h1.771l-1.974-2.616z" fill="#000"></path><path d="M322.506 102.783h.057l.008-.467-.065.467z" fill="#21252B"></path><path opacity="0.3" d="M322.506 102.783h.057l.008-.467-.065.467zM351.113 102.783l1.948-5.974 1.039 4.156-.519 1.818h-2.468z" fill="#000"></path><path d="M333.878 67.975s9.759-6.122 10.13 1.364l.146 1.938.67 9.808c.005.27-1.387 2.79-2.023 3.489l-.597.59c-1.513 1.133-4.596.596-4.695.592-.099-.004-2.883-.29-3.518-2.593l-.124-1.515c.068.171-.14-.118 0 0a1.093 1.093 0 01-.067-.54l.623-5.813a7.392 7.392 0 01-.192-1.722 94.096 94.096 0 00-.353-5.598z" fill="#FC9D9D"></path><path d="M347.225 64.415l-5.047.79c.07 1.506.724 3.91.75 5.413-.052 1.525.779 3.078 1.512 4.212 0 0 1.857-1.78 2.785-10.415z" fill="#3F4249"></path><path d="M338.574 59.145c-6.234.114-6.733 5.102-6.912 8.362-.241 4.434.416 9.896 4.993 10.499 6.774.904 8.185-9.333 8.185-9.333l.111-1.06c.354-3.343-.392-7.102-4.182-8.185a6.602 6.602 0 00-2.195-.283z" fill="#FC9D9D"></path><path opacity="0.2" d="M344.173 71.246a.97.97 0 01-.728-.225l.8 1.706-.072-1.48z" fill="#000"></path><path d="M344.03 67.174s.504-1.431 2.008-.78c1.707.754 1.356 4.62-1.53 4.845-1.506.125-1.205-.753-.953-1.932l.475-2.133z" fill="#FC9D9D"></path><path opacity="0.2" d="M346.114 67.401a1.116 1.116 0 00-.829-.226 1 1 0 00-.652.52 2.09 2.09 0 00-.275 1.039l-.026.327c0 .047.018.092.052.125a.176.176 0 00.301-.125l.024-.327c.013-.306.091-.605.226-.878a.87.87 0 01.426-.377.854.854 0 01.553.15.194.194 0 00.26-.049c.041-.005.015-.103-.06-.179z" fill="#000"></path><path opacity="0.15" d="M333.949 79.387l.239-2.338c.624.645 2.419 1.577 4.45 1.1a4.935 4.935 0 002.597-1.627.153.153 0 01.216-.023.16.16 0 01.057.103.158.158 0 01-.034.112 14.026 14.026 0 01-7.533 2.678l.008-.005z" fill="#000"></path><path opacity="0.2" d="M335.568 73.998a2.078 2.078 0 002.337-1.128.25.25 0 00.016-.15.248.248 0 00-.08-.128.166.166 0 00-.133-.015.176.176 0 00-.06.035.137.137 0 00-.039.056c-.213.451-.932 1.43-2.667.753a.18.18 0 00-.213.125.22.22 0 00.01.147.227.227 0 00.096.112c.237.092.481.156.733.192z" fill="#000"></path><path d="M338.083 69.48a.626.626 0 100-1.252.626.626 0 000 1.252z" fill="#000"></path><path d="M337.806 68.778c.07 0 .124-.056.124-.125a.123.123 0 00-.124-.124.125.125 0 00-.124.124c0 .069.057.125.124.125z" fill="#fff"></path><path d="M333.116 69.506a.626.626 0 100-1.252.626.626 0 000 1.252z" fill="#000"></path><path d="M332.839 68.801a.125.125 0 00.124-.124.125.125 0 00-.124-.124.123.123 0 00-.124.124c0 .068.054.124.124.124z" fill="#fff"></path><path opacity="0.2" d="M335.273 72.466l.829.05a.212.212 0 00.2-.174.215.215 0 00-.174-.203l-.829-.05a.378.378 0 01.05-.753.222.222 0 00.132-.052.223.223 0 00.07-.122c.024-.1-.075-.177-.176-.203a.78.78 0 00-.803.678.78.78 0 00.701.829z" fill="#000"></path><path d="M336.765 66.618c.063.148.608.055 1.258.104.649.05 1.176.203 1.257.065.034-.065-.063-.203-.278-.338a2.093 2.093 0 00-.943-.286 2.079 2.079 0 00-.972.159c-.233.096-.348.226-.322.296zM333.838 66.618c-.06.148-.608.054-1.255.104-.647.05-1.179.202-1.257.065-.036-.065.06-.203.278-.338a2.175 2.175 0 011.914-.127c.224.096.338.226.32.296z" fill="#000"></path><path d="M379.92 59.65h-16.37c-.802 0-1.454.65-1.454 1.454v7.707c0 .803.652 1.455 1.454 1.455h16.37c.803 0 1.455-.651 1.455-1.455v-7.707c0-.803-.652-1.455-1.455-1.455z" fill="#FFA800"></path><g opacity="0.3" fill="#000"><path opacity="0.3" d="M366.754 66.359a1.4 1.4 0 10.001-2.8 1.4 1.4 0 00-.001 2.8zM371.738 66.359a1.4 1.4 0 10.001-2.8 1.4 1.4 0 00-.001 2.8zM376.718 66.359a1.4 1.4 0 10.003-2.8 1.4 1.4 0 00-.003 2.8z"></path></g><path d="M364.857 70.265l.034 3.354 4.19-4.19-4.224.836z" fill="#FFA800"></path><path d="M291.696 100.664a2.759 2.759 0 100-5.518 2.759 2.759 0 000 5.518z" fill="#4D61FC"></path><path opacity="0.3" d="M291.696 100.664a2.759 2.759 0 100-5.518 2.759 2.759 0 000 5.518z" fill="#fff"></path><path d="M291.935 96.857h-1.587a.221.221 0 00-.221.221v1.652c0 .122.099.221.221.221h1.587a.22.22 0 00.221-.22v-1.653a.221.221 0 00-.221-.22zM293.522 98.862l-.829-.233a.278.278 0 01-.205-.26v-.907a.28.28 0 01.211-.26l.826-.225-.003 1.885z" fill="#fff"></path><path d="M299.043 100.664a2.758 2.758 0 10.001-5.517 2.758 2.758 0 00-.001 5.517z" fill="#4D61FC"></path><path opacity="0.3" d="M299.043 100.664a2.758 2.758 0 10.001-5.517 2.758 2.758 0 00-.001 5.517z" fill="#fff"></path><path d="M297.766 97.582l.8 1.55a.165.165 0 00.223.072l.465-.24a.166.166 0 00.07-.223l-.8-1.551a.165.165 0 00-.223-.072l-.465.24a.164.164 0 00-.07.224z" fill="#fff"></path><path d="M298.535 99.09l1.237-.639a.261.261 0 01.187-.011.27.27 0 01.145.115l.208.403a.259.259 0 01-.109.332l-.616.304c-.33.172-.751.073-1.052-.503zM297.803 97.673l1.239-.639a.247.247 0 00.122-.143c.008-.03.013-.063.008-.095a.213.213 0 00-.026-.092l-.208-.402a.229.229 0 00-.059-.076.259.259 0 00-.083-.046.251.251 0 00-.19.018l-.613.325c-.32.168-.491.563-.19 1.15z" fill="#fff"></path><path d="M317.87 62.614h-24.22c-.786 0-1.423.638-1.423 1.424v15.536c0 .786.637 1.423 1.423 1.423h24.22c.787 0 1.423-.637 1.423-1.423V64.038c0-.786-.636-1.424-1.423-1.424z" fill="#4D61FC"></path><path opacity="0.4" d="M317.87 62.614h-24.22c-.786 0-1.423.638-1.423 1.424v15.536c0 .786.637 1.423 1.423 1.423h24.22c.787 0 1.423-.637 1.423-1.423V64.038c0-.786-.636-1.424-1.423-1.424z" fill="#fff"></path><path d="M303.664 63.827h-10.115a.22.22 0 00-.221.22c0 .121.099.22.221.22h10.115a.22.22 0 00.221-.22.22.22 0 00-.221-.22zM310.408 63.827h-5.644a.22.22 0 00-.221.22c0 .121.099.22.221.22h5.644a.22.22 0 00.221-.22.22.22 0 00-.221-.22z" fill="#868A91"></path><path opacity="0.1" d="M303.664 63.827h-10.115a.22.22 0 00-.221.22c0 .121.099.22.221.22h10.115a.22.22 0 00.221-.22.22.22 0 00-.221-.22zM310.408 63.827h-5.644a.22.22 0 00-.221.22c0 .121.099.22.221.22h5.644a.22.22 0 00.221-.22.22.22 0 00-.221-.22z" fill="#000"></path><path d="M294.807 78.52h-1.332v1.332h1.332V78.52z" fill="#F4F4F4"></path><path d="M299.558 79.06h-4.247v.254h4.247v-.254z" fill="#fff"></path><path d="M304.065 78.52h-1.333v1.332h1.333V78.52z" fill="#868A91"></path><path d="M308.815 79.06h-4.247v.254h4.247v-.254z" fill="#fff"></path><path d="M313.319 78.52h-1.333v1.332h1.333V78.52z" fill="#4D61FC"></path><path opacity="0.3" d="M313.319 78.52h-1.333v1.332h1.333V78.52z" fill="#000"></path><path d="M318.071 79.06h-4.247v.254h4.247v-.254z" fill="#fff"></path><path d="M305.574 66.65a5.023 5.023 0 10-.008 10.047 5.023 5.023 0 00.008-10.047zm0 8.242a3.22 3.22 0 01-2.98-1.987 3.215 3.215 0 01-.181-1.861 3.213 3.213 0 012.53-2.532 3.225 3.225 0 013.306 1.372 3.224 3.224 0 01-.4 4.065 3.227 3.227 0 01-2.275.944z" fill="#F4F4F4"></path><path d="M310.594 71.674a5.024 5.024 0 00-5.021-5.024h-.153v1.803h.153a3.215 3.215 0 012.93 1.892 3.22 3.22 0 01-.514 3.45l1.436 1.095a5.002 5.002 0 001.169-3.216z" fill="#868A91"></path><path d="M309.424 74.885l-1.413-1.088h-.026a3.21 3.21 0 01-4.031.664 3.23 3.23 0 01-1.068-1.002l-1.447 1.073a5.054 5.054 0 001.699 1.537 5.03 5.03 0 004.458.197 4.99 4.99 0 001.828-1.38z" fill="#4D61FC"></path><path opacity="0.3" d="M309.424 74.885l-1.413-1.088h-.026a3.21 3.21 0 01-4.031.664 3.23 3.23 0 01-1.068-1.002l-1.447 1.073a5.054 5.054 0 001.699 1.537 5.03 5.03 0 004.458.197 4.99 4.99 0 001.828-1.38z" fill="#000"></path><path d="M347.271 59.829c-.827-1.193-2.926-1.646-4.328-1.41-.273-1.383-1.725-2.291-3.134-2.373a8.266 8.266 0 00-4.072 1.07c-.144-.235-.406-.337-.616-.515-.209-.177-1.307-.217-1.574-.145a2.759 2.759 0 00-1.917 1.976c-.056.262-.15.514-.277.75 0 0-2.216-.679-2.922 2.283a2.242 2.242 0 00-.047.911c.456 2.494 5.119 1.847 5.119 1.847 1.711.93 3.206.445 4.674-.806l.097.013c2.361 2.237 6.36 4.038 8.76 1.822l.015.002c1.519-1.08 1.05-4.236.222-5.425z" fill="#000"></path></svg>